<?xml version="1.0" encoding="utf-8"?>
<?xml-stylesheet type="text/css" href="svg-style.css" ?>
<!-- Generator: Adobe Illustrator 16.0.0, SVG Export Plug-In . SVG Version: 6.00 Build 0)  -->
<!DOCTYPE svg PUBLIC "-//W3C//DTD SVG 1.1//EN" "http://www.w3.org/Graphics/SVG/1.1/DTD/svg11.dtd">
<svg class="logo-prozone" version="1.1" id="레이어_1" xmlns="http://www.w3.org/2000/svg" xmlns:xlink="http://www.w3.org/1999/xlink" x="0px"
	 y="0px" width="31.182px" height="28.346px" viewBox="0 0 31.182 28.346" enable-background="new 0 0 31.182 28.346"
	 xml:space="preserve">
<path d="M25.09,25.173v-2h-6.768v2H25.09z"/>
<path d="M11.635,25.173v-2H5.09v2H11.635z"/>
<path d="M16.09,18.173h-2v3h2V18.173z"/>
<path d="M25.09,7.173c-0.023,0-0.048,0.003-0.071,0.003c-0.522-3.947-4.093-7.003-8.429-7.003c-4.465,0-8.118,3.243-8.465,7.361
	C7.489,7.305,6.806,7.173,6.09,7.173c-3.313,0-6,2.687-6,6c0,2.611,2.595,6,6.295,6h0.486H25.09c3.314,0,6-2.688,6-6
	C31.09,9.86,28.405,7.173,25.09,7.173z M26.09,13.173h-2.334l-0.666,4h-2l0.666-4H20.09v-2h2h2h2V13.173z"/>
<path d="M15.09,20.173c-2.209,0-4,1.791-4,4s1.791,4,4,4s4-1.791,4-4S17.299,20.173,15.09,20.173z M15.09,26.173
	c-1.104,0-2-0.896-2-2c0-1.104,0.896-2,2-2c1.105,0,2,0.896,2,2C17.09,25.277,16.196,26.173,15.09,26.173z"/>
</svg>
